<svg width="92" height="92" viewBox="0 0 92 92" fill="none" xmlns="http://www.w3.org/2000/svg">
<path d="M46 0.5C20.8734 0.5 0.5 20.8734 0.5 46C0.5 71.1266 20.8734 91.5 46 91.5C71.1266 91.5 91.5 71.1266 91.5 46C91.5 20.8734 71.1266 0.5 46 0.5ZM60.6352 46.7008L38.4539 62.8391C38.3323 62.9264 38.189 62.9786 38.0396 62.9898C37.8903 63.0011 37.7408 62.9709 37.6075 62.9027C37.4742 62.8344 37.3623 62.7308 37.284 62.6031C37.2058 62.4754 37.1643 62.3286 37.1641 62.1789V29.9227C37.1636 29.7726 37.2046 29.6254 37.2827 29.4972C37.3608 29.3691 37.4728 29.2651 37.6064 29.1967C37.7399 29.1284 37.8898 29.0983 38.0394 29.1099C38.189 29.1215 38.3325 29.1743 38.4539 29.2625L60.6352 45.3906C60.7399 45.4647 60.8254 45.5629 60.8844 45.6769C60.9434 45.7909 60.9742 45.9174 60.9742 46.0457C60.9742 46.1741 60.9434 46.3005 60.8844 46.4145C60.8254 46.5285 60.7399 46.6267 60.6352 46.7008Z" fill="#C9AC7E"/>
</svg>
